<?xml version="1.0" encoding="UTF-8" standalone="no"?>
<!-- Created with Inkscape (http://www.inkscape.org/) -->

<svg
   width="2.0000656mm"
   height="2.0724123mm"
   viewBox="0 0 2.0000656 2.0724123"
   version="1.1"
   id="svg5"
   inkscape:version="1.4.1 (93de688d07, 2025-03-30)"
   sodipodi:docname="critnote.svg"
   xml:space="preserve"
   xmlns:inkscape="http://www.inkscape.org/namespaces/inkscape"
   xmlns:sodipodi="http://sodipodi.sourceforge.net/DTD/sodipodi-0.dtd"
   xmlns="http://www.w3.org/2000/svg"
   xmlns:svg="http://www.w3.org/2000/svg"><sodipodi:namedview
     id="namedview7"
     pagecolor="#ffffff"
     bordercolor="#000000"
     borderopacity="1"
     inkscape:showpageshadow="0"
     inkscape:pageopacity="1"
     inkscape:pagecheckerboard="0"
     inkscape:deskcolor="#ffffff"
     inkscape:document-units="mm"
     showgrid="false"
     inkscape:zoom="24.844094"
     inkscape:cx="-1.5697896"
     inkscape:cy="4.6892433"
     inkscape:window-width="1920"
     inkscape:window-height="1017"
     inkscape:window-x="0"
     inkscape:window-y="1026"
     inkscape:window-maximized="1"
     inkscape:current-layer="layer1"><inkscape:grid
       type="xygrid"
       id="grid132"
       originx="-83.079694"
       originy="-149.79847"
       spacingy="1"
       spacingx="1"
       units="mm"
       visible="false" /></sodipodi:namedview><defs
     id="defs2" /><g
     inkscape:label="Ebene 1"
     inkscape:groupmode="layer"
     id="layer1"
     transform="translate(-83.079691,-145.12911)"><path
       style="fill:#d40000;fill-opacity:1;stroke-width:0.153681"
       d="m 84.144453,147.18931 c -0.0177,-0.0103 -0.04635,-0.0416 -0.06548,-0.0727 -0.05577,-0.0907 -0.09271,-0.3085 -0.09925,-0.58519 l -0.0025,-0.10949 -0.03778,-0.008 -0.03778,-0.008 -0.05937,0.0821 c -0.187396,0.25908 -0.34603,0.41521 -0.446881,0.43982 -0.08312,0.0206 -0.188528,-0.043 -0.269261,-0.16175 -0.04563,-0.0671 -0.05431,-0.10372 -0.03972,-0.1669 0.01029,-0.0449 0.01358,-0.0512 0.04095,-0.08 0.03842,-0.0405 0.173998,-0.12513 0.269559,-0.16834 0.0662,-0.0301 0.259818,-0.10475 0.332219,-0.12842 0.0142,-0.004 0.02648,-0.0103 0.02696,-0.0123 4.69e-4,-0.002 4e-6,-0.0185 -8.4e-4,-0.0381 -0.0015,-0.0253 -0.0051,-0.035 -0.01482,-0.0391 -0.02116,-0.008 -0.09121,-0.0383 -0.143623,-0.0568 -0.0268,-0.0103 -0.0518,-0.0206 -0.05528,-0.0235 -0.0037,-0.002 -0.03169,-0.0144 -0.062,-0.0272 -0.03075,-0.0123 -0.08436,-0.0346 -0.119278,-0.0506 -0.03529,-0.0144 -0.08345,-0.0364 -0.10724,-0.0475 -0.136276,-0.0599 -0.156321,-0.0747 -0.16873,-0.12512 -0.0095,-0.0377 -0.0039,-0.10413 0.01276,-0.15455 0.04439,-0.13397 0.13072,-0.2245 0.218695,-0.22921 0.04472,-0.002 0.04908,-0.001 0.08862,0.0208 0.09746,0.0549 0.225764,0.17987 0.414895,0.4049 0.03854,0.0457 0.07425,0.0856 0.07935,0.0885 0.0142,0.008 0.06633,-0.0144 0.06978,-0.0292 0.0018,-0.008 0.0027,-0.0317 0.0029,-0.0545 -1.55e-4,-0.0229 7.69e-4,-0.063 0.0023,-0.0891 0.0012,-0.0261 0.0039,-0.086 0.0064,-0.13295 0.01008,-0.2183 0.02815,-0.36534 0.05145,-0.41825 0.02103,-0.0475 0.112117,-0.0821 0.210202,-0.0794 0.07258,0.002 0.131461,0.0185 0.201143,0.0554 0.03175,0.0185 0.06435,0.0582 0.07466,0.0949 0.0078,0.0274 0.007,0.0368 -0.007,0.0941 -0.02712,0.1101 -0.128148,0.30822 -0.274986,0.53943 l -0.042,0.0661 0.01502,0.0251 c 0.008,0.0144 0.01955,0.0278 0.02525,0.0311 0.0068,0.004 0.03935,-0.004 0.09503,-0.0218 0.309444,-0.10166 0.506177,-0.14199 0.593032,-0.12183 0.02179,0.004 0.04799,0.0165 0.05842,0.022 0.04554,0.0327 0.08658,0.12739 0.09818,0.22603 0.0072,0.0613 -0.01543,0.15908 -0.04455,0.19303 -0.03783,0.0442 -0.09386,0.064 -0.186058,0.0665 -0.04779,0.002 -0.07158,-0.004 -0.327764,-0.0617 l -0.276432,-0.0624 -0.01029,0.0123 c -0.0058,0.006 -0.01399,0.0206 -0.01832,0.0298 -0.008,0.0165 -0.0058,0.0212 0.0439,0.0899 0.07909,0.10907 0.222093,0.34197 0.253153,0.41206 0.0541,0.12204 0.05285,0.17554 -0.0058,0.24609 -0.05266,0.0634 -0.159449,0.12245 -0.243456,0.13479 -0.03449,0.004 -0.09786,-0.001 -0.116788,-0.0123 z"
       id="path1" /></g></svg>
